<svg width="122" height="90" viewBox="0 0 122 90" fill="none" xmlns="http://www.w3.org/2000/svg">
<g clip-path="url(#clip0_1_2)">
<path d="M38 89.5H1.38751C9.66237 82.605 18.7685 74.0275 23.4909 65.0416C25.9589 60.3455 27.2509 55.4986 26.5657 50.7008C25.9251 46.2151 23.5653 41.8351 18.9472 37.7067H38V89.5Z" fill="#3B82F6" stroke="#FFFEFE"/>
<path d="M49.5 89.5H1.95123C9.80043 85.0639 19.6265 77.7689 26.3527 69.8366C29.9644 65.5773 32.7144 61.0971 33.7567 56.7459C34.7279 52.6921 34.2141 48.7493 31.5542 45.2486H49.5V89.5Z" fill="#1E40AF" stroke="#FFFEFE"/>
<path d="M78.1054 89H6.84437C45.0181 76.868 58.7645 58.956 59.7403 41.7256C60.2515 32.6988 57.2321 24.0258 52.619 16.7108C48.767 10.6027 43.7774 5.39794 38.7172 1.67653C56.917 3.50698 67.2703 19.5581 72.8594 38.2474C78.6061 57.4637 79.1383 78.9744 78.1054 89Z" fill="#2563EB" stroke="#1E3A8A" stroke-width="2"/>
<path d="M40.196 54.5528L40.2015 54.5204L40.2056 54.4877C40.4658 52.4055 40.4933 50.2909 40.0406 48.6282C39.8122 47.7895 39.4317 46.9532 38.7896 46.3115C38.1104 45.6328 37.2235 45.2598 36.203 45.2598C21.128 45.2598 14.3791 33.079 15.0715 24.2514C15.8339 14.5316 19.3265 8.91643 23.3942 5.70204C27.5047 2.4539 32.4018 1.5 36.203 1.5C47.6878 1.5 58.1171 8.0913 62.6119 19.0684C66.8265 29.3613 67.8787 44.7149 59.6265 58.4423C52.2766 70.6688 37.383 81.8677 10.11 86.959C15.7347 84.3093 21.0973 81.5629 25.6855 78.1426C32.9123 72.7554 38.3121 65.6458 40.196 54.5528Z" fill="#FFFDFD" stroke="#172554" stroke-width="3"/>
<path d="M80 89.5H43.3875C51.6624 82.605 60.7685 74.0275 65.4909 65.0416C67.9589 60.3455 69.2509 55.4986 68.5657 50.7008C67.9251 46.2151 65.5653 41.8351 60.9472 37.7067H80V89.5Z" fill="#3B82F6" stroke="#FFFEFE"/>
<path d="M91.5 89.5H43.9512C51.8004 85.0639 61.6265 77.7689 68.3527 69.8366C71.9644 65.5773 74.7144 61.0971 75.7567 56.7459C76.7279 52.6921 76.2141 48.7493 73.5542 45.2486H91.5V89.5Z" fill="#1E40AF" stroke="#FFFEFE"/>
<path d="M119.652 88.5H51.9788C87.9844 76.3638 101.273 58.8283 102.24 41.7539C102.758 32.5974 99.6949 23.8224 95.0419 16.4441C91.5351 10.8834 87.093 6.06291 82.5012 2.41205C99.2561 5.07463 108.997 20.3907 114.38 38.3906C120.022 57.2561 120.618 78.3515 119.652 88.5Z" fill="#2563EB" stroke="#1E3A8A" stroke-width="3"/>
<path d="M82.196 54.5528L82.2015 54.5204L82.2056 54.4877C82.4658 52.4055 82.4933 50.2909 82.0406 48.6282C81.8122 47.7895 81.4317 46.9532 80.7896 46.3115C80.1104 45.6328 79.2235 45.2598 78.203 45.2598C63.128 45.2598 56.3791 33.079 57.0715 24.2514C57.8339 14.5316 61.3265 8.91643 65.3942 5.70204C69.5047 2.4539 74.4018 1.5 78.203 1.5C89.5866 1.5 99.0775 8.49468 103.612 19.5684C107.836 29.8848 109.12 45.1148 101.12 58.7041C93.9945 70.8065 79.3328 81.894 52.101 86.9633C57.7289 84.3122 63.0948 81.5647 67.6855 78.1426C74.9123 72.7554 80.3121 65.6458 82.196 54.5528Z" fill="#FFFDFD" stroke="#172554" stroke-width="3"/>
</g>
<defs>
<clipPath id="clip0_1_2">
<rect width="122" height="90" fill="white"/>
</clipPath>
</defs>
</svg>
