<svg width="122" height="90" viewBox="0 0 122 90" fill="none" xmlns="http://www.w3.org/2000/svg">
<g clip-path="url(#clip0_1_2)">
<path d="M38.25 89.75H0.695323C9.10787 82.7823 18.4707 74.0567 23.2696 64.9253C25.7224 60.258 26.9935 55.4651 26.3182 50.7362C25.6651 46.1623 23.1959 41.6818 18.2828 37.4567H38.25V89.75Z" fill="#3B82F6" stroke="#FFFEFE" stroke-width="0.5"/>
<path d="M49.75 89.75H0.988835C8.94617 85.3819 19.2171 77.8652 26.162 69.675C29.7619 65.4295 32.4842 60.9845 33.5136 56.6877C34.5071 52.5409 33.9223 48.5314 31.0391 44.9986H49.75V89.75Z" fill="#1E40AF" stroke="#FFFEFE" stroke-width="0.5"/>
<path d="M78.1054 89H6.84437C45.0181 76.868 58.7645 58.956 59.7403 41.7256C60.2515 32.6988 57.2321 24.0258 52.619 16.7108C48.767 10.6027 43.7774 5.39794 38.7172 1.67653C56.917 3.50698 67.2703 19.5581 72.8594 38.2474C78.6061 57.4637 79.1383 78.9744 78.1054 89Z" fill="#1E40AF" stroke="#1E3A8A" stroke-width="2"/>
<path d="M39.703 54.4691L39.7067 54.4475L39.7094 54.4257C39.9667 52.3671 39.9855 50.3289 39.5581 48.7596C39.3431 47.97 38.9952 47.2239 38.4362 46.6652C37.8523 46.0817 37.0933 45.7598 36.203 45.7598C20.7896 45.7598 13.8617 33.2817 14.5731 24.2123C15.3442 14.3805 18.8878 8.62585 23.0842 5.30974C27.3091 1.97113 32.328 1 36.203 1C47.8821 1 58.4996 7.70612 63.0746 18.8789C67.3369 29.2883 68.4036 44.812 60.0551 58.6999C52.2808 71.6324 36.2236 83.3373 6.48424 88.094C13.3387 84.9312 19.9158 81.8199 25.3867 77.7417C32.5259 72.4198 37.8438 65.4175 39.703 54.4691Z" fill="#FFFDFD" stroke="#172554" stroke-width="2"/>
<path d="M80.25 89.75H42.6953C51.1079 82.7823 60.4707 74.0567 65.2696 64.9253C67.7224 60.258 68.9935 55.4651 68.3182 50.7362C67.6651 46.1623 65.1959 41.6818 60.2828 37.4567H80.25V89.75Z" fill="#3B82F6" stroke="#FFFEFE" stroke-width="0.5"/>
<path d="M91.75 89.75H42.9888C50.9462 85.3819 61.2171 77.8652 68.162 69.675C71.7619 65.4295 74.4842 60.9845 75.5136 56.6877C76.5071 52.5409 75.9223 48.5314 73.0391 44.9986H91.75V89.75Z" fill="#1E40AF" stroke="#FFFEFE" stroke-width="0.5"/>
<path d="M120.105 89H48.8444C87.0181 76.868 100.765 58.956 101.74 41.7256C102.252 32.6988 99.2321 24.0258 94.619 16.7108C90.767 10.6027 85.7774 5.39794 80.7172 1.67653C98.917 3.50698 109.27 19.5581 114.859 38.2474C120.606 57.4637 121.138 78.9744 120.105 89Z" fill="#1E40AF" stroke="#1E3A8A" stroke-width="2"/>
<path d="M81.703 54.4691L81.7067 54.4475L81.7094 54.4257C81.9667 52.3671 81.9855 50.3289 81.5581 48.7596C81.3431 47.97 80.9952 47.2239 80.4362 46.6652C79.8523 46.0817 79.0933 45.7598 78.203 45.7598C62.7896 45.7598 55.8617 33.2817 56.5731 24.2123C57.3442 14.3805 60.8878 8.62585 65.0842 5.30974C69.3091 1.97113 74.328 1 78.203 1C89.8146 1 99.4733 8.1417 104.075 19.3789C108.343 29.804 109.648 45.2036 101.55 58.9577C94.0105 71.7649 78.1929 83.3537 48.4805 88.0957C55.3364 84.9323 61.9149 81.8206 67.3867 77.7417C74.5259 72.4198 79.8438 65.4175 81.703 54.4691Z" fill="#FFFDFD" stroke="#172554" stroke-width="2"/>
</g>
<defs>
<clipPath id="clip0_1_2">
<rect width="122" height="90" fill="white"/>
</clipPath>
</defs>
</svg>
